<?xml version="1.0" encoding="UTF-8" standalone="no"?>
<!-- Created with Inkscape (http://www.inkscape.org/) -->

<svg
   version="1.1"
   id="svg1"
   width="603.66687"
   height="367.04471"
   viewBox="0 0 603.66687 367.04471"
   xmlns="http://www.w3.org/2000/svg"
   xmlns:svg="http://www.w3.org/2000/svg">
  <defs
     id="defs1" />
  <g
     id="g1">
    <path
       id="path1"
       d="m 42.258417,-14.145115 c -0.398438,0.386718 -0.996094,0.691406 -1.59375,0.691406 H 26.613885 c -0.585937,0 -1.183593,-0.199219 -1.582031,-0.597656 l -4.347656,-4.359375 c -0.398438,-0.386719 -0.691406,-0.984375 -0.691406,-1.582032 v -30.082031 c 0,-0.585937 0.292968,-1.089844 0.691406,-1.582031 l 4.347656,-4.253906 c 0.398438,-0.492188 0.996094,-0.691407 1.582031,-0.691407 h 14.050782 c 0.597656,0 1.195312,0.292969 1.59375,0.691407 l 5.929687,5.941406 9.597656,-9.503906 -7.324218,-7.21875 c -2.074219,-2.179688 -4.945313,-3.363282 -7.910157,-3.363282 h -17.8125 c -2.964843,0 -5.835937,1.183594 -7.921875,3.257813 l -6.9257809,6.925781 c -2.1679687,2.179688 -3.3632812,4.957031 -3.3632812,8.015625 v 33.75 c 0,2.964844 1.1953125,5.835938 3.3632812,7.910156 l 6.9257809,6.9257816 c 2.085938,2.1796875 4.957032,3.269531275 7.921875,3.269531275 h 17.8125 c 2.964844,0 5.835938,-1.183593775 7.910157,-3.363281275 l 7.324218,-7.2304686 -9.597656,-9.492188 z m 61.248043,0.492187 4.85157,13.652343875 h 14.23828 L 98.455682,-68.672459 c -0.292968,-0.890625 -1.183593,-1.488281 -2.074218,-1.488281 H 84.60412 c -0.984375,0 -1.78125,0.597656 -2.074219,1.582031 L 58.377557,-5.84125e-4 h 14.25 L 77.47912,-13.652928 Z m -13.066403,-37.113281 8.308594,23.648437 H 82.225214 Z M 163.46545,-70.16074 v 42.84375 l -23.64844,-41.648438 c -0.39844,-0.703125 -1.08984,-1.195312 -1.98047,-1.195312 H 125.76623 V -5.84125e-4 h 13.45312 V -42.844334 l 23.66016,41.7539061 c 0.38672,0.69140628 1.07813,1.089843775 1.875,1.089843775 h 12.17578 V -70.16074 Z m 48.38672,47.496093 15.53906,-47.496093 h 14.14453 l -22.45312,68.5781246 c -0.30469,0.98437503 -1.19532,1.582031275 -2.17969,1.582031275 h -10.19531 c -0.98438,0 -1.78125,-0.597656245 -2.17969,-1.582031275 L 182.07482,-70.16074 h 14.14453 z m 67.0957,9.011719 4.85156,13.652343875 h 14.23828 L 273.89709,-68.672459 c -0.29297,-0.890625 -1.1836,-1.488281 -2.07422,-1.488281 h -11.77734 c -0.98438,0 -1.78125,0.597656 -2.07422,1.582031 L 233.81896,-5.84125e-4 h 14.25 L 252.92053,-13.652928 Z m -13.06641,-37.113281 8.3086,23.648437 h -16.52344 z m 69.86133,50.85937488 h -19.79297 c -2.96484,0 -5.74218,-1.18359378 -7.91015,-3.36328128 l -7.92188,-7.8164066 9.59766,-9.597656 6.52734,6.632813 c 0.39844,0.398437 0.9961,0.691406 1.59375,0.691406 h 16.01953 c 0.59766,0 1.19532,-0.292969 1.59375,-0.691406 l 4.34766,-4.359375 c 0.39844,-0.386719 0.69141,-0.984375 0.69141,-1.582032 v -2.273437 c 0,-1.089844 -0.69141,-1.980469 -1.67579,-2.179688 l -29.09765,-8.109375 c -3.36328,-0.890625 -6.23438,-2.964843 -8.3086,-5.636718 -2.07421,-2.777344 -3.16406,-6.140625 -3.16406,-9.503907 v -4.160156 c 0,-2.964844 1.08985,-5.835937 3.25781,-8.015625 l 6.92579,-6.925781 c 2.08593,-2.074219 4.95703,-3.257813 7.92187,-3.257813 h 19.79297 c 2.96484,0 5.83594,1.183594 7.91016,3.257813 l 7.92187,7.921875 -9.59766,9.492187 -6.53906,-6.527343 c -0.38672,-0.492188 -0.98437,-0.691407 -1.58203,-0.691407 h -16.03125 c -0.58594,0 -1.18359,0.199219 -1.58203,0.691407 l -4.34766,4.253906 c -0.39843,0.492187 -0.59765,0.996094 -0.59765,1.582031 v 2.378906 c 0,0.984375 0.59765,1.875 1.58203,2.179688 l 29.09765,8.109375 c 3.36329,0.890625 6.23438,2.871094 8.3086,5.636719 2.07422,2.671875 3.26953,6.046875 3.26953,9.503906 v 4.160156 c 0,2.964844 -1.19531,5.835938 -3.36328,7.910156 l -6.9375,6.9257816 c -2.07422,2.1796875 -4.94531,3.36328128 -7.91016,3.36328128 z"
       style="fill:#005aa0;fill-opacity:1;fill-rule:nonzero;stroke:none"
       aria-label="CANVAS"
       transform="matrix(1.3333333,0,0,1.3333333,131.77263,230.22734)" />
    <path
       id="path2"
       d="m 127.266,274.957 c -14.141,-1.219 -27.137,-4.125 -38.989,-8.715 l -1.347,-0.523 0.32,-0.739 c 0.176,-0.406 1.086,-2.488 2.023,-4.628 0.938,-2.145 2.016,-4.637 2.395,-5.547 0.383,-0.907 0.77,-1.727 0.867,-1.825 0.094,-0.093 2.348,0.567 5.004,1.473 10.113,3.442 19.816,5.449 30.199,6.25 2.532,0.195 4.735,0.356 4.895,0.356 0.23,0 0.297,1.574 0.297,7.078 v 7.082 l -1.711,-0.035 c -0.942,-0.016 -2.719,-0.118 -3.953,-0.227 z m 14.867,-6.785 c 0,-5.535 0.066,-7.113 0.293,-7.113 0.164,0 2.422,-0.164 5.015,-0.364 10.207,-0.785 19.868,-2.777 29.758,-6.133 2.477,-0.839 4.617,-1.527 4.754,-1.527 0.133,0 0.516,0.664 0.844,1.473 0.332,0.812 1.566,3.695 2.742,6.41 1.18,2.715 2.113,4.953 2.082,4.977 -0.781,0.543 -10.699,3.781 -15.078,4.925 -8.391,2.196 -18.852,3.84 -27.285,4.293 l -3.125,0.172 z M 74.051,259.789 C 63.797,254.488 52.879,246.887 45.262,239.746 l -1.653,-1.547 9.961,-9.992 1.746,1.586 c 4.325,3.922 11.047,8.98 16.403,12.344 2.793,1.754 8.523,4.992 10.769,6.086 0.746,0.363 1.356,0.761 1.356,0.879 0,0.121 -0.469,1.293 -1.043,2.605 -0.578,1.316 -1.641,3.77 -2.363,5.457 -0.727,1.688 -1.504,3.461 -1.731,3.945 l -0.41,0.875 z m 121.91,1.578 c -1.168,-2.558 -5.234,-12.168 -5.172,-12.222 0.039,-0.036 0.871,-0.465 1.844,-0.95 9.285,-4.644 19.797,-11.777 27.113,-18.406 l 1.746,-1.582 9.961,9.984 -1.422,1.348 c -5.57,5.277 -14.051,11.559 -22.297,16.508 -3.429,2.062 -10.804,5.957 -11.273,5.957 -0.117,0 -0.344,-0.289 -0.5,-0.637 z m -66.238,-9.996 c -10.563,-0.824 -21.516,-3.129 -30.852,-6.492 -2.531,-0.91 -2.582,-0.949 -2.195,-1.707 0.183,-0.352 1.289,-2.867 2.465,-5.594 3.449,-8.016 3.308,-7.734 3.765,-7.551 2.336,0.957 8.586,2.848 12.324,3.731 3.883,0.918 9.68,1.808 13.805,2.121 l 3.777,0.289 v 7.664 c 0,6.641 -0.05,7.668 -0.355,7.691 -0.195,0.02 -1.426,-0.05 -2.734,-0.152 z m 12.519,-0.047 c -0.066,-0.164 -0.09,-3.644 -0.054,-7.73 l 0.062,-7.434 2.477,-0.164 c 7.945,-0.539 15.523,-2.023 23.445,-4.594 2.183,-0.711 4.019,-1.25 4.07,-1.195 0.133,0.133 4.535,10.219 4.934,11.297 0.172,0.473 0.492,1.199 0.707,1.621 0.226,0.434 0.305,0.848 0.187,0.965 -0.472,0.476 -8.691,3.09 -13.285,4.226 -5.508,1.364 -13.23,2.586 -18.64,2.95 -1.106,0.074 -2.407,0.187 -2.899,0.25 -0.59,0.074 -0.93,0.011 -1.004,-0.192 z m 43.379,-13.926 c -0.68,-1.586 -2.023,-4.695 -2.988,-6.898 -2.016,-4.605 -2.094,-4.074 0.836,-5.559 5.601,-2.843 12.129,-7.25 17.785,-12.019 1.387,-1.172 2.594,-2.129 2.676,-2.129 0.386,0 10.695,10.594 10.543,10.836 -0.301,0.488 -6.348,5.508 -8.981,7.453 -3.422,2.531 -6.187,4.375 -9.836,6.563 -2.597,1.55 -8.39,4.648 -8.699,4.648 -0.059,-0.004 -0.66,-1.305 -1.336,-2.895 z m -100.719,1.321 c -5.136,-2.657 -11.175,-6.477 -15.898,-10.055 -2.664,-2.019 -8.156,-6.613 -8.422,-7.047 -0.148,-0.234 10.18,-10.824 10.559,-10.824 0.086,0 1.097,0.805 2.242,1.789 5.289,4.535 12.512,9.473 17.742,12.125 3.016,1.527 2.898,1.066 1.254,4.863 -0.781,1.809 -2.113,4.879 -2.953,6.821 -0.84,1.945 -1.621,3.562 -1.731,3.601 -0.113,0.035 -1.367,-0.535 -2.793,-1.273 z m -49.933,-9.324 c -8.031,-8.86 -14.985,-19.102 -20.594,-30.336 -0.988,-1.981 -1.797,-3.692 -1.797,-3.805 0,-0.113 0.824,-0.547 1.828,-0.969 3.508,-1.461 7.504,-3.144 9.067,-3.816 0.863,-0.371 1.687,-0.676 1.828,-0.676 0.137,0 0.683,0.91 1.211,2.027 4.101,8.676 11.082,19.157 18.133,27.219 1.183,1.352 2.152,2.52 2.152,2.598 0,0.074 -2.215,2.343 -4.918,5.047 l -4.918,4.914 z m 94.422,-2.715 c -5.051,-0.516 -11.207,-1.66 -15.696,-2.914 -2.902,-0.809 -6.73,-2.055 -7.16,-2.325 -0.25,-0.16 0.137,-1.253 1.813,-5.129 3.554,-8.226 3.289,-7.71 3.882,-7.562 0.286,0.07 1.895,0.555 3.567,1.078 3.828,1.195 8.879,2.231 13.531,2.77 l 3.602,0.418 v 13.824 l -1.36,-0.035 c -0.746,-0.024 -1.726,-0.078 -2.179,-0.125 z m 12.742,-6.719 v -6.945 l 3.597,-0.418 c 4.543,-0.528 9.614,-1.555 13.532,-2.739 1.676,-0.504 3.207,-0.98 3.402,-1.058 0.367,-0.141 0.434,-0.008 4.215,8.777 1.457,3.391 1.605,3.86 1.254,4.035 -0.567,0.285 -4.543,1.563 -6.77,2.172 -5.054,1.391 -12.125,2.625 -16.968,2.965 l -2.262,0.16 z m 34.715,-2.84 c -0.114,-0.301 -1.192,-2.828 -2.391,-5.621 -1.199,-2.789 -2.324,-5.41 -2.5,-5.82 l -0.316,-0.746 1.961,-1.063 c 3.925,-2.121 7.769,-4.707 11.566,-7.773 l 2.328,-1.883 4.926,4.926 4.922,4.925 -2.18,1.809 c -4.891,4.063 -9.348,7.145 -14.367,9.945 -3.473,1.938 -3.68,2.008 -3.949,1.301 z M 95.879,216.758 C 89.633,213.246 85.172,210.23 80.48,206.359 l -2.769,-2.289 4.914,-4.918 4.918,-4.918 2.691,2.157 c 3.172,2.543 6.946,5.097 10.305,6.976 1.332,0.742 2.418,1.453 2.418,1.574 0,0.125 -0.746,1.942 -1.66,4.043 -0.914,2.098 -2.102,4.852 -2.641,6.118 -0.664,1.562 -1.097,2.293 -1.347,2.277 -0.2,-0.016 -0.844,-0.293 -1.43,-0.621 z m -43.68,-3.653 c -6.101,-6.835 -11.726,-15.07 -16.058,-23.511 -0.891,-1.727 -1.618,-3.278 -1.618,-3.438 0,-0.265 0.883,-0.676 6.489,-3.015 1.726,-0.719 2.656,-1.11 5.468,-2.305 0.93,-0.395 1.754,-0.719 1.829,-0.719 0.074,0 0.679,1.086 1.343,2.418 3.176,6.336 8.172,13.789 12.934,19.293 0.73,0.844 1.453,1.695 1.609,1.899 0.235,0.308 -0.57,1.214 -5.09,5.73 l -5.371,5.367 z m 16.883,-18.066 c -3.894,-4.711 -6.855,-9.043 -9.719,-14.215 -2.375,-4.293 -2.414,-4.41 -1.551,-4.734 0.364,-0.141 1.911,-0.781 3.434,-1.422 1.524,-0.641 4.027,-1.695 5.563,-2.344 1.535,-0.644 2.851,-1.176 2.929,-1.176 0.078,0 0.668,0.985 1.309,2.184 2.223,4.156 4.723,7.875 7.988,11.879 l 1.942,2.379 -4.883,4.875 c -2.684,2.683 -4.93,4.875 -4.996,4.875 -0.063,-0.004 -0.969,-1.039 -2.016,-2.301 z M 8.473,185.484 C 8.27,184.934 7.836,183.75 7.508,182.855 6.676,180.59 4.711,173.941 3.875,170.559 1.934,162.703 0.578,153.555 0.16,145.484 L 0,142.359 h 14.23 l 0.004,1.594 c 0.02,8.711 2.668,22.641 6.379,33.559 0.641,1.875 1.082,3.492 0.989,3.586 -0.098,0.093 -2.247,1.039 -4.778,2.097 -5.57,2.328 -7.89,3.289 -7.945,3.293 -0.02,0 -0.203,-0.453 -0.406,-1.004 z m 22.019,-8.824 c -0.594,-1.515 -2.18,-6.496 -2.816,-8.828 -2.043,-7.516 -3.227,-14.75 -3.867,-23.644 l -0.133,-1.829 h 15.277 l 0.16,2.536 c 0.313,4.953 1.77,13.601 3.11,18.464 0.195,0.715 0.839,2.817 1.433,4.672 0.59,1.856 1.035,3.41 0.985,3.457 -0.071,0.067 -12.457,5.289 -13.594,5.731 -0.164,0.062 -0.406,-0.184 -0.555,-0.559 z m 22.117,-11.336 c -2.144,-6.519 -3.656,-14.136 -4.078,-20.605 l -0.156,-2.36 h 13.75 l 0.105,0.532 c 0.059,0.293 0.227,1.804 0.372,3.363 0.41,4.308 1.503,9.473 3.015,14.211 0.344,1.066 0.574,1.984 0.516,2.035 -0.059,0.055 -1.91,0.852 -4.117,1.77 -3.278,1.359 -6.661,2.785 -8.293,3.492 -0.168,0.07 -0.586,-0.844 -1.114,-2.438 z M 0.16,129.793 c 0.477,-9.195 2.145,-19.496 4.617,-28.512 0.84,-3.062 3.473,-11.289 3.688,-11.519 0.074,-0.078 7.773,3.117 11.711,4.859 l 1.344,0.594 -0.454,1.211 c -3.609,9.664 -6.812,26.031 -6.832,34.902 l -0.004,1.59 H 0 Z m 23.649,1.297 c 0.66,-9.141 1.89,-16.543 4,-24.055 0.718,-2.555 2.421,-7.883 2.57,-8.039 0.031,-0.031 1.32,0.481 2.867,1.137 1.547,0.656 4.086,1.734 5.645,2.39 1.554,0.661 3.425,1.457 4.152,1.774 l 1.32,0.574 -1.164,3.817 c -2.09,6.867 -3.683,15.339 -4.086,21.695 l -0.16,2.535 H 23.676 Z m 24.64,0.707 c 0,-3.055 1.36,-11.82 2.496,-16.106 0.977,-3.679 2.047,-7.078 2.231,-7.078 0.094,0 0.738,0.258 1.437,0.571 0.696,0.312 2.965,1.277 5.043,2.148 2.078,0.871 4.321,1.824 4.989,2.121 l 1.214,0.539 -0.797,2.68 c -1.074,3.617 -2.128,8.914 -2.457,12.355 -0.148,1.555 -0.316,3.071 -0.375,3.36 l -0.105,0.531 h -13.68 z m 16.633,-28.238 c -2.203,-0.95 -4.992,-2.137 -6.191,-2.637 -1.203,-0.504 -2.184,-1.004 -2.184,-1.113 0,-0.371 2.621,-5.414 4.059,-7.809 2.8,-4.66 7.996,-11.758 9.906,-13.527 l 0.562,-0.524 9.758,9.781 -1.703,2.036 c -3.25,3.894 -6.43,8.679 -8.715,13.121 -0.683,1.328 -1.297,2.414 -1.359,2.41 -0.067,-0.004 -1.926,-0.785 -4.133,-1.738 z M 43.965,94.605 c -1.883,-0.816 -4.883,-2.097 -6.668,-2.851 -1.785,-0.75 -3.246,-1.477 -3.246,-1.606 0,-0.355 3.277,-6.785 4.844,-9.5 3.64,-6.316 8.925,-13.605 13.738,-18.945 l 1.125,-1.246 5.387,5.395 5.386,5.398 -1.808,2.105 c -5.282,6.149 -9.969,13.207 -13.661,20.567 -0.601,1.203 -1.222,2.18 -1.386,2.176 -0.16,-0.004 -1.832,-0.676 -3.711,-1.493 z M 22.016,85.316 C 20.652,84.723 17.945,83.559 16,82.727 14.051,81.891 12.375,81.125 12.266,81.02 12.008,80.766 16.551,71.793 19.078,67.57 23.934,59.453 29.203,52.285 35.188,45.648 l 1.773,-1.964 4.918,4.91 c 2.703,2.703 4.918,5 4.918,5.109 0,0.106 -0.828,1.117 -1.836,2.242 -7.063,7.899 -12.984,16.68 -18.039,26.766 -1.024,2.047 -1.992,3.711 -2.145,3.699 -0.156,-0.012 -1.398,-0.504 -2.761,-1.094 z m 60.648,-9.168 -4.836,-4.855 1.414,-1.297 c 2.176,-2 7.621,-6.016 10.985,-8.105 3.199,-1.989 7.507,-4.364 7.648,-4.219 0.098,0.101 2.375,5.312 4.699,10.746 l 0.821,1.926 -2.52,1.414 c -4.262,2.387 -8.496,5.308 -11.824,8.148 -0.707,0.606 -1.344,1.098 -1.418,1.098 -0.074,0 -2.313,-2.184 -4.969,-4.856 z m 26.715,-15.632 c -1.438,-3.352 -2.649,-6.235 -2.688,-6.407 -0.14,-0.589 7.711,-2.961 13.614,-4.109 3.043,-0.594 7.281,-1.168 10.797,-1.473 l 1.828,-0.156 v 13.961 l -1.004,0.125 c -0.551,0.07 -2.117,0.242 -3.481,0.383 -4.316,0.453 -10.207,1.754 -14.425,3.187 -0.938,0.321 -1.778,0.582 -1.864,0.582 -0.086,0 -1.336,-2.742 -2.777,-6.093 z M 65.672,59.164 60.363,53.84 61.66,52.664 c 3.442,-3.113 9.149,-7.492 13.57,-10.406 3.528,-2.324 12.34,-7.27 12.954,-7.27 0.054,0 0.261,0.45 0.457,1 0.195,0.555 1.531,3.707 2.968,7.008 1.434,3.301 2.586,6.016 2.555,6.035 -0.027,0.02 -1.289,0.68 -2.801,1.469 -5.722,2.98 -13.25,8.098 -18.074,12.297 -1.07,0.926 -2.023,1.687 -2.125,1.687 -0.102,0 -2.574,-2.394 -5.492,-5.32 z M 48.574,42.078 43.637,37.133 44.094,36.621 c 0.91,-1.012 6.664,-5.871 9.898,-8.363 3.836,-2.949 10.836,-7.625 14.778,-9.867 3.433,-1.953 9.492,-5.114 9.8,-5.114 0.129,0 0.59,0.821 1.024,1.828 0.437,1.004 1.367,3.157 2.066,4.778 0.699,1.625 1.59,3.679 1.977,4.57 0.386,0.891 0.672,1.649 0.633,1.684 -0.04,0.039 -1.344,0.726 -2.903,1.539 -9.824,5.109 -18.097,10.758 -25.648,17.512 -1.125,1.007 -2.082,1.835 -2.125,1.835 -0.043,0 -2.301,-2.226 -5.02,-4.945 z m 53.934,2.524 c -0.11,-0.29 -0.363,-0.903 -0.559,-1.356 C 98.176,34.547 96.855,31.324 97,31.188 c 0.535,-0.508 10.602,-3.59 14.926,-4.575 5.972,-1.355 15.695,-2.699 19.648,-2.715 h 1.36 l -0.059,7.61 -0.063,7.609 -2.597,0.176 c -7.57,0.508 -17.453,2.523 -24.543,5.012 -1.297,0.453 -2.492,0.828 -2.66,0.828 -0.164,0 -0.391,-0.235 -0.504,-0.528 z M 91.465,18.992 c -0.809,-1.91 -2.059,-4.84 -2.785,-6.512 -0.727,-1.668 -1.289,-3.054 -1.25,-3.078 0.468,-0.3 9.015,-3.242 10.925,-3.761 7.731,-2.106 11.059,-2.864 16.672,-3.793 3.883,-0.645 10.766,-1.403 15.25,-1.68 L 132.938,0 l -0.063,7.168 -0.063,7.172 -3.632,0.164 c -7.586,0.344 -18.356,2.273 -27.164,4.871 -1.328,0.391 -7.723,2.555 -8.731,2.953 -0.273,0.11 -0.695,-0.664 -1.82,-3.336 z"
       style="fill:#005aa0;fill-opacity:1;fill-rule:nonzero;stroke:none"
       transform="scale(1.3333333)" />
  </g>
</svg>
